<?xml version="1.0" standalone="no"?>
<!DOCTYPE svg PUBLIC "-//W3C//DTD SVG 20010904//EN"
 "http://www.w3.org/TR/2001/REC-SVG-20010904/DTD/svg10.dtd">
<svg version="1.0" xmlns="http://www.w3.org/2000/svg"
 width="500.000000pt" height="500.000000pt" viewBox="0 0 500.000000 500.000000"
 preserveAspectRatio="xMidYMid meet">
<metadata>
Created by potrace 1.16, written by Peter Selinger 2001-2019
</metadata>
<g transform="translate(0.000000,500.000000) scale(0.100000,-0.100000)"
fill="#000000" stroke="none">
<path d="M0 2500 l0 -2500 2500 0 2500 0 0 2500 0 2500 -2500 0 -2500 0 0
-2500z m1911 405 c136 -36 235 -110 282 -213 31 -67 31 -245 -1 -314 -63 -139
-201 -214 -429 -234 -78 -6 -82 -7 -72 -27 6 -11 35 -45 65 -75 30 -31 54 -59
54 -62 0 -4 31 -29 68 -57 151 -112 372 -213 482 -218 30 -2 107 -6 170 -10
211 -13 417 25 630 118 145 62 230 105 230 115 0 4 -31 16 -70 26 -98 25 -171
64 -194 104 -24 42 -15 50 30 28 67 -32 195 -56 295 -56 105 0 119 -7 148 -74
11 -27 9 -34 -44 -113 -66 -99 -118 -159 -156 -179 -40 -20 -49 -18 -49 16 0
32 12 55 68 129 18 24 31 45 29 47 -2 3 -73 -29 -158 -70 -274 -133 -451 -179
-689 -180 -152 0 -244 13 -375 55 -212 67 -441 221 -550 369 -39 53 -42 66
-19 91 15 16 12 18 -43 24 -174 18 -275 58 -350 138 -74 78 -96 144 -91 272 4
105 19 148 75 222 51 66 174 125 303 143 91 12 285 4 361 -15z m-831 -85 l0
-90 -272 -2 -273 -3 -3 -57 -3 -58 236 0 236 0 -3 -72 -3 -73 -232 -3 -233 -2
0 -150 0 -150 -155 0 -155 0 0 375 0 375 430 0 430 0 0 -90z m2000 80 c208
-33 290 -105 290 -257 0 -89 -27 -145 -91 -189 l-46 -30 37 -22 c44 -25 63
-62 84 -162 9 -41 16 -76 16 -78 0 -1 -68 -1 -152 0 l-151 3 -22 65 c-29 90
-39 105 -82 126 -30 14 -64 18 -168 18 l-130 1 -3 -107 -3 -108 -154 0 -155 0
0 375 0 375 333 0 c182 0 361 -5 397 -10z m740 -365 l0 -375 -160 0 -160 0 0
375 0 375 160 0 160 0 0 -375z m1020 285 l0 -90 -150 0 -150 0 0 -285 0 -285
-160 0 -160 0 0 285 0 285 -145 0 -145 0 0 90 0 90 455 0 455 0 0 -90z"/>
<path d="M1650 2720 c-88 -12 -139 -56 -160 -142 -21 -84 19 -175 94 -209 46
-21 157 -26 203 -8 70 26 113 95 113 180 0 125 -102 198 -250 179z"/>
<path d="M2665 2718 c-3 -8 -5 -46 -3 -84 l3 -69 150 2 c170 2 201 8 229 46
16 22 18 30 8 52 -19 41 -65 53 -230 61 -130 6 -152 5 -157 -8z"/>
</g>
</svg>
